<?xml version="1.0" encoding="UTF-8" standalone="no"?>
<!-- Generator: Adobe Illustrator 19.0.1, SVG Export Plug-In . SVG Version: 6.00 Build 0)  -->

<svg
   xmlns:dc="http://purl.org/dc/elements/1.1/"
   xmlns:cc="http://creativecommons.org/ns#"
   xmlns:rdf="http://www.w3.org/1999/02/22-rdf-syntax-ns#"
   xmlns:svg="http://www.w3.org/2000/svg"
   xmlns="http://www.w3.org/2000/svg"
   xmlns:xlink="http://www.w3.org/1999/xlink"
   xmlns:sodipodi="http://sodipodi.sourceforge.net/DTD/sodipodi-0.dtd"
   xmlns:inkscape="http://www.inkscape.org/namespaces/inkscape"
   version="1.1"
   id="Layer_1"
   x="0px"
   y="0px"
   viewBox="-269 366 60.8 60.9"
   style="enable-background:new -269 366 60.8 60.9;"
   xml:space="preserve"
   inkscape:version="0.91 r13725"
   sodipodi:docname="Icon_Twitter.svg"><metadata
     id="metadata11"><rdf:RDF><cc:Work
         rdf:about=""><dc:format>image/svg+xml</dc:format><dc:type
           rdf:resource="http://purl.org/dc/dcmitype/StillImage" /><dc:title></dc:title></cc:Work></rdf:RDF></metadata><defs
     id="defs9"><linearGradient
       id="black-gradient"><stop
         offset="0"
         style="stop-color:#333333;stop-opacity:1"
         id="black1" /><stop
         offset="1"
         style="stop-color:#212121;stop-opacity:1"
         id="black2" /></linearGradient><linearGradient
       id="blue-gradient"><stop
         offset="0"
         style="stop-color:#33ccff;stop-opacity:1"
         id="blue1" /><stop
         offset="1"
         style="stop-color:#06c1ff;stop-opacity:1"
         id="blue2" /></linearGradient><linearGradient
       gradientTransform="matrix(4.2619852,0,0,4.2619852,-14710.634,4471.6445)"
       gradientUnits="userSpaceOnUse"
       xlink:href="#black-gradient"
       y2="-1028.5905"
       x2="3494.25"
       y1="-1044.3878"
       x1="3494.25"
       id="black" /><linearGradient
       gradientTransform="matrix(4.2619852,0,0,4.2619852,-14725.634,4456.5085)"
       gradientUnits="userSpaceOnUse"
       xlink:href="#blue-gradient"
       y2="-1026.9196"
       x2="3550.75"
       y1="-1045.5128"
       x1="3550.75"
       id="blue" /></defs><sodipodi:namedview
     pagecolor="#ffffff"
     bordercolor="#666666"
     borderopacity="1"
     objecttolerance="10"
     gridtolerance="10"
     guidetolerance="10"
     inkscape:pageopacity="0"
     inkscape:pageshadow="2"
     inkscape:window-width="1366"
     inkscape:window-height="719"
     id="namedview7"
     showgrid="false"
     borderlayer="true"
     inkscape:showpageshadow="false"
     inkscape:zoom="3.8752052"
     inkscape:cx="43.175985"
     inkscape:cy="38.934452"
     inkscape:window-x="-8"
     inkscape:window-y="-8"
     inkscape:window-maximized="1"
     inkscape:current-layer="Layer_1" /><style
     type="text/css"
     id="style3">
	.st0{fill:#424242;}
</style><g
     inkscape:groupmode="layer"
     id="layer1"
     inkscape:label="Layer 1"
     style="display:none" /><g
     inkscape:groupmode="layer"
     id="layer2"
     inkscape:label="Layer 2"
     style="display:none" /><g
     id="g4172"><path
       sodipodi:nodetypes="sssss"
       style="fill:#424242"
       inkscape:connector-curvature="0"
       id="path5"
       d="m -238.5,426.5 c -16.6,0 -30,-13.4 -30,-30 0,-16.6 13.4,-30 30,-30 16.6,0 30,13.4 30,30 0,16.6 -13.4,30 -30,30 z"
       class="st0" /><path
       id="twitter"
       d="m -230.89447,394.48569 c 1.06607,0 1.98218,-0.4057 2.74454,-1.21547 0.76295,-0.8108 1.14383,-1.78404 1.14383,-2.91789 0,-1.13487 -0.38088,-2.1075 -1.14662,-2.91768 -0.76514,-0.8108 -1.68284,-1.21671 -2.75268,-1.21671 l -11.51873,0 0,-4.13376 c 0,-1.13589 -0.37929,-2.1077 -1.13708,-2.91686 -0.755,-0.81264 -1.66593,-1.21732 -2.72484,-1.21732 -1.09113,0 -2.01579,0.39791 -2.77258,1.1927 -0.75659,0.79563 -1.13528,1.77728 -1.13528,2.94455 l 0,16.50041 c 0,3.40708 1.13528,6.3192 3.40843,8.73601 2.27137,2.41864 5.00696,3.62633 8.20735,3.62633 l 7.68466,0 c 1.06746,0 1.98058,-0.40489 2.74314,-1.21507 0.76276,-0.80894 1.14364,-1.78383 1.14364,-2.91809 0,-1.13486 -0.38088,-2.10667 -1.14364,-2.91726 -0.76256,-0.81101 -1.67867,-1.21752 -2.74473,-1.21752 l -7.68645,0 c -1.06746,0 -1.97541,-0.39812 -2.72325,-1.19334 -0.74764,-0.79869 -1.12057,-1.76619 -1.12057,-2.90475 l 0,-4.09869 11.53086,0 z"
       style="display:inline;fill:#ffffff;fill-opacity:1;stroke:none;opacity:1;fill-rule:evenodd"
       inkscape:connector-curvature="0"
       sodipodi:nodetypes="ccscscscscsscsscscsscsccc" /><rect
       y="379.3667"
       x="-250.20564"
       height="31.658461"
       width="26.731783"
       id="rect3343"
       style="fill:none" /><rect
       y="379.18423"
       x="-238.16266"
       height="21.075228"
       width="0.45617378"
       id="rect3345"
       style="fill:none" /><rect
       y="370.97308"
       x="-263.06973"
       height="38.044891"
       width="48.171951"
       id="rect3347"
       style="fill:none" /></g></svg>